<svg xmlns="http://www.w3.org/2000/svg" viewBox="0 0 64 64" role="img" aria-label="UB monogram">
  <defs>
    <linearGradient id="bg" x1="0" y1="0" x2="1" y2="1">
      <stop offset="0%" stop-color="#2563eb" />
      <stop offset="100%" stop-color="#0f172a" />
    </linearGradient>
  </defs>
  <rect width="64" height="64" rx="14" fill="url(#bg)" />
  <path
    d="M15 17h8v19c0 4 2.4 6.3 6.8 6.3s6.8-2.3 6.8-6.3V17h8v19.4C44.6 45.7 39.3 50 29.8 50S15 45.7 15 36.4z"
    fill="#fff"
  />
  <path
    d="M47.6 17H33.2v33h14.7c7.2 0 11.7-3.3 11.7-8.7 0-4-2.3-6.7-6.3-7.7 3-1.1 4.8-3.4 4.8-6.7 0-5.8-4.1-9.2-10.5-9.2zM41 24.1h5.8c2.2 0 3.5 1.2 3.5 3.1s-1.4 3.1-3.7 3.1H41zm0 12.2h6.6c2.5 0 4 1.3 4 3.4s-1.5 3.3-4.1 3.3H41z"
    fill="#bfdbfe"
  />
</svg>
