<svg xmlns="http://www.w3.org/2000/svg" viewBox="0 0 1600 900" role="img" aria-label="Small UAV above technical grid">
  <defs>
    <linearGradient id="sky3" x1="0" y1="0" x2="0" y2="1">
      <stop offset="0%" stop-color="#020617" />
      <stop offset="100%" stop-color="#0b112b" />
    </linearGradient>
    <linearGradient id="gridGlow" x1="0" y1="0" x2="1" y2="0">
      <stop offset="0%" stop-color="#38bdf8" stop-opacity="0.08" />
      <stop offset="50%" stop-color="#22d3ee" stop-opacity="0.28" />
      <stop offset="100%" stop-color="#38bdf8" stop-opacity="0.08" />
    </linearGradient>
  </defs>

  <rect width="1600" height="900" fill="url(#sky3)" />

  <g stroke="#38bdf8" stroke-opacity="0.16" stroke-width="1">
    <path d="M0 560H1600" />
    <path d="M0 620H1600" />
    <path d="M0 680H1600" />
    <path d="M0 740H1600" />
    <path d="M0 800H1600" />
    <path d="M140 540V900" />
    <path d="M360 540V900" />
    <path d="M580 540V900" />
    <path d="M800 540V900" />
    <path d="M1020 540V900" />
    <path d="M1240 540V900" />
    <path d="M1460 540V900" />
  </g>

  <rect x="0" y="520" width="1600" height="380" fill="url(#gridGlow)" />

  <g transform="translate(820 250)">
    <rect x="-18" y="-30" width="36" height="88" rx="12" fill="#0f172a" />
    <rect x="-190" y="-18" width="380" height="34" rx="16" fill="#111827" />
    <rect x="-44" y="-50" width="88" height="20" rx="10" fill="#1e293b" />
    <polygon points="0,-96 30,-50 -30,-50" fill="#0f172a" />
    <circle cx="-130" cy="-2" r="7" fill="#334155" />
    <circle cx="130" cy="-2" r="7" fill="#334155" />
  </g>
</svg>
